<?xml version="1.0"?>
<svg xmlns="http://www.w3.org/2000/svg" xmlns:xlink="http://www.w3.org/1999/xlink" xmlns:svgjs="http://svgjs.com/svgjs" version="1.1" width="512" height="512" x="0" y="0" viewBox="0 0 462 462.0001" style="enable-background:new 0 0 512 512" xml:space="preserve"><g><path xmlns="http://www.w3.org/2000/svg" d="m104.488281 218.976562c57.707031 0 104.488281-46.78125 104.488281-104.488281s-46.78125-104.488281-104.488281-104.488281-104.488281 46.78125-104.488281 104.488281c.0664062 57.679688 46.808594 104.421875 104.488281 104.488281zm0-192.976562c48.871094 0 88.488281 39.617188 88.488281 88.488281 0 48.871094-39.617187 88.488281-88.488281 88.488281-48.871093 0-88.488281-39.617187-88.488281-88.488281.054688-48.847656 39.640625-88.433593 88.488281-88.488281zm0 0" fill="#ffffff" data-original="#000000" style=""/><path xmlns="http://www.w3.org/2000/svg" d="m104.488281 159.65625c-9.378906-.007812-16.976562-7.609375-16.988281-16.984375 0-4.421875-3.582031-8-8-8s-8 3.578125-8 8c.023438 15.324219 10.578125 28.621094 25.5 32.117187v7.210938c0 4.417969 3.582031 8 8 8s8-3.582031 8-8v-7.460938c15.996094-4.273437 26.347656-19.746093 24.191406-36.164062-2.15625-16.414062-16.144531-28.691406-32.703125-28.691406-9.382812 0-16.988281-7.605469-16.988281-16.988282 0-9.382812 7.605469-16.988281 16.988281-16.988281 9.378907 0 16.988281 7.605469 16.988281 16.988281 0 4.417969 3.582032 8 8 8 4.417969 0 8-3.582031 8-8-.023437-14.933593-10.054687-27.996093-24.476562-31.871093v-7.824219c0-4.417969-3.582031-8-8-8s-8 3.582031-8 8v7.574219c-16.324219 3.800781-27.199219 19.242187-25.285156 35.890625 1.914062 16.652344 16.011718 29.21875 32.773437 29.21875 9.332031.070312 16.859375 7.65625 16.859375 16.984375 0 9.332031-7.527344 16.917969-16.859375 16.988281zm0 0" fill="#ffffff" data-original="#000000" style=""/><path xmlns="http://www.w3.org/2000/svg" d="m331.925781 215.269531c-3.007812-2.609375-7.472656-2.613281-10.484375-.007812l-117.625 101.863281c-2.523437 2.160156-3.421875 5.667969-2.25 8.777344 1.171875 3.105468 4.167969 5.144531 7.488282 5.097656h18.945312v121.335938c-.039062 2.089843.753906 4.109374 2.210938 5.609374 1.453124 1.503907 3.445312 2.363282 5.539062 2.390626l179.5 1.664062h.074219c2.0625 0 4.035156-.835938 5.46875-2.316406 1.472656-1.519532 2.265625-3.570313 2.207031-5.683594v-123h21c3.328125.039062 6.320312-2.007812 7.496094-5.117188 1.171875-3.113281.273437-6.628906-2.25-8.792968zm-5.253906 16.457031 95.910156 83.273438h-192.066406zm22.328125 213.65625-44-.402343v-48.980469h44zm58 .542969-42-.398437v-57.949219c0-4.417969-3.945312-7.578125-8.363281-7.578125h-59.261719c-4.417969 0-8.375 3.160156-8.375 7.578125v57.253906l-45-.425781v-113.40625h163zm0 0" fill="#ffffff" data-original="#000000" style=""/><path xmlns="http://www.w3.org/2000/svg" d="m313.144531.613281c-2.972656-1.242187-6.402343-.5624998-8.679687 1.714844l-66.625 66.3125c-3.128906 3.117187-3.136719 8.183594-.015625 11.3125l66.644531 66.980469c2.261719 2.296875 5.695312 2.992187 8.671875 1.75 2.976563-1.242188 4.902344-4.167969 4.859375-7.394532v-33.246093c15-.4375 44.453125 4.34375 67.933594 43.390625l4.054687 6.703125c1.722657 2.867187 5.046875 4.359375 8.335938 3.75 3.292969-.613281 5.855469-3.203125 6.4375-6.496094l1.339843-7.703125c.019532-.117188.039063-.238281.054688-.359375 1.34375-8.9375 5.960938-55.183594-34.808594-89.078125-1.378906-1.265625-6.546875-5.585938-15.859375-9.742188-11.023437-4.925781-23.488281-7.769531-37.488281-8.480468v-32.027344c.03125-3.21875-1.890625-6.136719-4.855469-7.386719zm47.355469 69.460938c.152344.148437.308594.253906.472656.386719 23.386719 19.363281 28.945313 44.007812 29.847656 59.640624-12.484374-16.265624-27.347656-27.492187-44.328124-33.441406-8.621094-3.027344-17.6875-4.578125-26.820313-4.59375-3.640625-.015625-7.273437.253906-10.871094.804688-3.894531.617187-6.769531 3.960937-6.800781 7.902344v21.136718l-47.332031-47.570312 47.332031-47.09375v20.605468c.054688 4.476563 3.667969 8.089844 8.144531 8.148438h1c33.398438 0 48.824219 13.59375 49.355469 14.074219zm0 0" fill="#ffffff" data-original="#000000" style=""/><path xmlns="http://www.w3.org/2000/svg" d="m127.527344 305.066406c-2.261719-2.296875-5.695313-2.988281-8.667969-1.746094-2.976563 1.242188-4.898437 4.167969-4.859375 7.390626v33.246093c-15 .445313-44.449219-4.339843-67.933594-43.390625l-4.054687-6.703125c-1.722657-2.863281-5.046875-4.359375-8.335938-3.746093-3.289062.609374-5.851562 3.199218-6.433593 6.492187l-1.34375 7.703125c-.019532.117188-.039063.238281-.054688.359375-1.339844 8.9375-5.960938 55.183594 34.808594 89.078125 1.378906 1.265625 6.546875 5.585938 15.859375 9.742188 11.023437 4.929687 23.488281 7.769531 37.488281 8.480468v32.027344c-.03125 3.21875 1.890625 6.136719 4.855469 7.386719.960937.40625 1.992187.613281 3.035156.613281 2.109375 0 4.132813-.835938 5.625-2.328125l66.636719-66.3125c3.128906-3.117187 3.140625-8.179687.023437-11.3125zm2.472656 119.6875v-20.605468c-.054688-4.476563-3.667969-8.089844-8.144531-8.148438h-1c-33.398438 0-48.820313-13.59375-49.347657-14.074219-.152343-.148437-.3125-.253906-.472656-.386719-23.394531-19.363281-28.949218-44.007812-29.855468-59.640624 12.488281 16.265624 27.347656 27.492187 44.332031 33.441406 12.070312 4.292968 25.003906 5.589844 37.691406 3.785156 3.890625-.613281 6.765625-3.953125 6.800781-7.894531v-21.136719l47.328125 47.566406zm0 0" fill="#ffffff" data-original="#000000" style=""/></g></svg>
