<?xml version="1.0"?>
<svg xmlns="http://www.w3.org/2000/svg" xmlns:xlink="http://www.w3.org/1999/xlink" xmlns:svgjs="http://svgjs.com/svgjs" version="1.1" width="512" height="512" x="0" y="0" viewBox="0 0 511.974 511.974" style="enable-background:new 0 0 512 512" xml:space="preserve"><g><g xmlns="http://www.w3.org/2000/svg"><path d="m144.775 76.371h69.386c4.142 0 7.5-3.358 7.5-7.5s-3.358-7.5-7.5-7.5h-69.386c-4.142 0-7.5 3.358-7.5 7.5s3.358 7.5 7.5 7.5z" fill="#ffffff" data-original="#000000" style=""/><path d="m255.617 193.846h-95.006c-4.142 0-7.5 3.358-7.5 7.5s3.358 7.5 7.5 7.5h95.006c4.142 0 7.5-3.358 7.5-7.5s-3.357-7.5-7.5-7.5z" fill="#ffffff" data-original="#000000" style=""/><path d="m131.692 136.356c-3.851-1.527-8.21.359-9.735 4.21l-23.795 60.072-10.235-21.882c-1.755-3.752-6.218-5.372-9.971-3.616-3.752 1.755-5.371 6.219-3.616 9.971l17.6 37.627c1.236 2.643 3.888 4.322 6.792 4.322.076 0 .152-.001.228-.003 2.992-.09 5.644-1.951 6.746-4.734l30.197-76.233c1.525-3.851-.361-8.209-4.211-9.734z" fill="#ffffff" data-original="#000000" style=""/><path d="m153.111 268.318c0 4.142 3.358 7.5 7.5 7.5h123.463c4.142 0 7.5-3.358 7.5-7.5s-3.358-7.5-7.5-7.5h-123.463c-4.142 0-7.5 3.358-7.5 7.5z" fill="#ffffff" data-original="#000000" style=""/><path d="m160.611 310.642h95.006c4.142 0 7.5-3.358 7.5-7.5s-3.358-7.5-7.5-7.5h-95.006c-4.142 0-7.5 3.358-7.5 7.5s3.358 7.5 7.5 7.5z" fill="#ffffff" data-original="#000000" style=""/><path d="m75.913 315.79c1.464 1.464 3.384 2.197 5.303 2.197s3.839-.732 5.303-2.197l16.494-16.494 16.494 16.494c1.464 1.464 3.384 2.197 5.303 2.197s3.839-.732 5.303-2.197c2.929-2.929 2.929-7.678 0-10.606l-16.493-16.494 16.494-16.494c2.929-2.929 2.929-7.678 0-10.606-2.929-2.929-7.678-2.929-10.606 0l-16.494 16.494-16.494-16.495c-2.929-2.929-7.678-2.929-10.606 0-2.929 2.929-2.929 7.678 0 10.606l16.494 16.494-16.494 16.494c-2.93 2.929-2.93 7.678-.001 10.607z" fill="#ffffff" data-original="#000000" style=""/><path d="m284.074 362.614h-123.463c-4.142 0-7.5 3.358-7.5 7.5s3.358 7.5 7.5 7.5h123.463c4.142 0 7.5-3.358 7.5-7.5s-3.358-7.5-7.5-7.5z" fill="#ffffff" data-original="#000000" style=""/><path d="m255.617 397.439h-95.006c-4.142 0-7.5 3.358-7.5 7.5s3.358 7.5 7.5 7.5h95.006c4.142 0 7.5-3.358 7.5-7.5s-3.357-7.5-7.5-7.5z" fill="#ffffff" data-original="#000000" style=""/><path d="m131.692 339.948c-3.851-1.525-8.21.36-9.735 4.211l-23.795 60.072-10.235-21.882c-1.755-3.751-6.218-5.372-9.971-3.616-3.752 1.755-5.371 6.219-3.616 9.971l17.6 37.628c1.236 2.643 3.888 4.322 6.792 4.322.075 0 .151-.001.228-.003 2.992-.09 5.644-1.951 6.746-4.734l30.197-76.233c1.525-3.852-.361-8.21-4.211-9.736z" fill="#ffffff" data-original="#000000" style=""/><path d="m381.644.469c-34.176 0-65.316 13.229-88.584 34.828-76.293-7.882-153.62-7.801-229.901.269-31.374 3.329-55.598 28.552-57.601 59.974-7.411 116.077-7.411 233.79 0 349.866 2.003 31.435 26.229 56.658 57.603 59.975 38.594 4.083 77.445 6.125 116.309 6.124 38.854 0 77.721-2.042 116.3-6.124 31.375-3.316 55.601-28.54 57.604-59.974 3.945-61.748 5.787-124.357 5.532-186.267 7.386 1.305 14.984 1.989 22.739 1.989 26.632 0 52.244-7.981 74.067-23.081 21.309-14.744 37.604-35.223 47.125-59.224 1.527-3.85-.356-8.209-4.207-9.737-3.848-1.527-8.209.355-9.737 4.207-1.156 2.915-2.436 5.766-3.815 8.559l-6.775-3.912c-3.588-2.072-8.175-.842-10.245 2.745-2.071 3.587-.842 8.174 2.745 10.245l6.773 3.91c-8.035 12.03-18.297 22.498-30.398 30.871-.494.342-.999.661-1.497.995l-3.899-6.754c-2.071-3.588-6.658-4.816-10.245-2.745s-4.816 6.658-2.745 10.245l3.914 6.779c-13.567 6.716-28.313 10.662-43.559 11.639v-18.227c0-4.142-3.358-7.5-7.5-7.5s-7.5 3.358-7.5 7.5v18.234c-15.547-1.003-30.262-5.098-43.54-11.679l3.895-6.746c2.071-3.587.842-8.174-2.745-10.245-3.588-2.072-8.174-.842-10.245 2.745l-3.884 6.728c-12.589-8.433-23.432-19.277-31.865-31.866l6.727-3.884c3.587-2.071 4.816-6.658 2.745-10.245s-6.658-4.816-10.245-2.745l-6.745 3.894c-6.58-13.277-10.675-27.993-11.678-43.539h18.231c4.142 0 7.5-3.358 7.5-7.5s-3.358-7.5-7.5-7.5h-18.231c1.003-15.546 5.099-30.261 11.68-43.538l6.743 3.893c1.181.682 2.471 1.006 3.743 1.006 2.592 0 5.113-1.346 6.502-3.751 2.071-3.587.842-8.174-2.745-10.245l-6.724-3.882c8.433-12.589 19.276-23.431 31.865-31.863l3.882 6.723c1.389 2.406 3.91 3.751 6.502 3.751 1.272 0 2.562-.324 3.743-1.006 3.587-2.071 4.816-6.658 2.745-10.245l-3.892-6.741c13.277-6.58 27.992-10.675 43.537-11.677v18.227c0 4.142 3.358 7.5 7.5 7.5s7.5-3.358 7.5-7.5v-18.228c15.545 1.003 30.26 5.098 43.537 11.678l-3.892 6.741c-2.071 3.587-.842 8.174 2.745 10.245 1.181.682 2.471 1.006 3.743 1.006 2.592 0 5.113-1.346 6.502-3.751l3.881-6.723c12.589 8.432 23.432 19.275 31.865 31.863l-6.723 3.882c-3.587 2.071-4.816 6.658-2.745 10.245 1.389 2.406 3.91 3.751 6.502 3.751 1.272 0 2.562-.324 3.743-1.006l6.742-3.892c6.58 13.277 10.676 27.992 11.679 43.537h-18.23c-4.142 0-7.5 3.358-7.5 7.5s3.358 7.5 7.5 7.5h18.237c-.168 2.601-.42 5.184-.76 7.729-.549 4.106 2.334 7.879 6.44 8.428 4.109.549 7.879-2.334 8.428-6.439.753-5.638 1.136-11.43 1.136-17.214-.004-71.865-58.47-130.331-130.334-130.331zm-67.419 241.831c.724 57.124-.742 115.032-4.396 172.2-1.238 19.342-16.155 34.87-35.463 36.921-62.97 6.653-126.826 6.654-189.79 0-19.327-2.052-34.247-17.579-35.474-36.862l-.1-1.603c-.229-4.136-3.772-7.309-7.902-7.076-4.136.229-7.304 3.766-7.076 7.902l.104 1.673c1.696 26.656 22.246 48.055 48.867 50.882 32.007 3.382 64.239 5.073 96.472 5.073s64.469-1.691 96.479-5.073c26.6-2.826 47.145-24.224 48.852-50.879 3.507-54.873 5.001-110.418 4.502-165.315 4.726 2.081 9.596 3.889 14.594 5.405.344 62.76-1.49 126.278-5.491 188.904-1.537 24.116-20.13 43.467-44.211 46.012-76.122 8.055-153.321 8.055-229.454 0-24.081-2.546-42.674-21.897-44.21-46.013-7.371-115.443-7.371-232.512 0-347.956 1.536-24.106 20.13-43.458 44.211-46.012 71.466-7.561 143.873-8.023 215.447-1.388-6.049 7.496-11.285 15.671-15.574 24.395-3.99-.374-7.712-.697-11.258-.976-3.637-.291-6.949 2.082-7.854 5.614-1.841 7.181-8.054 12.536-15.454 13.324-33.561 3.548-67.602 3.548-101.167 0-7.399-.788-13.608-6.143-15.45-13.325-.907-3.536-4.227-5.896-7.866-5.613-7.252.583-14.631 1.269-22.571 2.098-26.618 2.827-47.168 24.227-48.863 50.881-5.466 85.767-6.067 172.682-1.786 258.332.201 4.01 3.514 7.125 7.484 7.125.126 0 .253-.003.381-.009 4.137-.207 7.323-3.728 7.116-7.865-4.253-85.084-3.656-171.427 1.774-256.629 1.229-19.339 16.15-34.866 35.464-36.917 5.763-.602 11.229-1.127 16.565-1.591 4.88 10.077 14.753 17.214 26.168 18.431 34.618 3.658 69.719 3.659 104.333 0 11.417-1.217 21.293-8.355 26.173-18.434.243.021.495.044.74.066-4.677 13.413-7.228 27.813-7.228 42.8 0 9.688 1.072 19.129 3.086 28.22h-93.786c-4.142 0-7.5 3.358-7.5 7.5s3.358 7.5 7.5 7.5h98.076c10.101 28.648 29.942 52.744 55.536 68.278z" fill="#ffffff" data-original="#000000" style=""/><path d="m358.497 90.841v16.807h-33.924c-12.764 0-23.147 10.384-23.147 23.147s10.384 23.147 23.147 23.147h57.072c12.763 0 23.146-10.384 23.146-23.147v-39.954c0-12.764-10.384-23.148-23.147-23.148s-23.147 10.385-23.147 23.148zm-42.071 39.955c0-4.493 3.655-8.147 8.147-8.147h33.924v8.147c0 2.867.528 5.612 1.485 8.147h-35.408c-4.494 0-8.148-3.654-8.148-8.147zm73.366-39.955v39.955c0 4.493-3.655 8.147-8.147 8.147s-8.147-3.655-8.147-8.147v-39.955c0-4.493 3.655-8.148 8.147-8.148s8.147 3.656 8.147 8.148z" fill="#ffffff" data-original="#000000" style=""/></g></g></svg>
