<?xml version="1.0"?>
<svg xmlns="http://www.w3.org/2000/svg" xmlns:xlink="http://www.w3.org/1999/xlink" xmlns:svgjs="http://svgjs.com/svgjs" version="1.1" width="512" height="512" x="0" y="0" viewBox="0 0 480 480" style="enable-background:new 0 0 512 512" xml:space="preserve"><g><path xmlns="http://www.w3.org/2000/svg" d="m128 120c-30.914062.035156-55.964844 25.085938-56 56v80h16v-32h80v32h16v-80c-.035156-30.914062-25.085938-55.964844-56-56zm-40 56c-.003906-12.011719 5.394531-23.390625 14.699219-30.988281 9.304687-7.601563 21.53125-10.613281 33.300781-8.210938v71.199219h-48zm80 32h-16v-63.792969c10.035156 7.492188 15.964844 19.269531 16 31.792969zm0 0" fill="#ffffff" data-original="#000000" style=""/><path xmlns="http://www.w3.org/2000/svg" d="m336 112v16h16v-72c0-13.253906-10.746094-24-24-24h-64c-13.253906 0-24 10.746094-24 24v72h16v-16zm-72-64h64c4.417969 0 8 3.582031 8 8v40h-80v-40c0-4.417969 3.582031-8 8-8zm0 0" fill="#ffffff" data-original="#000000" style=""/><path xmlns="http://www.w3.org/2000/svg" d="m384 96v-56c-.027344-22.082031-17.917969-39.9726562-40-40h-96c-22.082031.0273438-39.972656 17.917969-40 40v56h-43.480469c-27.226562-12.484375-58.9375-10.242188-84.136719 5.945312-25.199218 16.191407-40.421874 44.101563-40.382812 74.054688v32h-40v232c.0273438 22.082031 17.917969 39.972656 40 40h208c19-.023438 35.371094-13.386719 39.199219-32h152.800781c22.082031-.027344 39.972656-17.917969 40-40v-312zm-344 368c-13.253906 0-24-10.746094-24-24v-216h24v32h16v-80c0-39.765625 32.234375-72 72-72s72 32.234375 72 72v80h16v-32h24v216c0 13.253906-10.746094 24-24 24zm232-24c0 13.253906-10.746094 24-24 24h-.207031c5.292969-6.882812 8.175781-15.316406 8.207031-24v-216h16zm16-8v-224h-72v-32c.058594-23.351562-9.226562-45.753906-25.785156-62.214844-.628906-.632812-1.320313-1.175781-1.96875-1.785156h19.753906v16h16v-88c0-13.253906 10.746094-24 24-24h96c13.253906 0 24 10.746094 24 24v88h16v-16h40v296c0 13.253906-10.746094 24-24 24zm176-24c0 13.253906-10.746094 24-24 24h-8.207031c5.292969-6.882812 8.175781-15.316406 8.207031-24v-296h24zm0 0" fill="#ffffff" data-original="#000000" style=""/><path xmlns="http://www.w3.org/2000/svg" d="m314.144531 355.632812c-3.273437 1.128907-6.617187 2.042969-10.007812 2.734376-4.332031.882812-7.125 5.109374-6.242188 9.441406.886719 4.328125 5.113281 7.125 9.441407 6.238281 4.066406-.835937 8.078124-1.933594 12-3.292969 4.144531-1.46875 6.332031-6.003906 4.894531-10.160156-1.441407-4.15625-5.960938-6.371094-10.125-4.960938zm0 0" fill="#ffffff" data-original="#000000" style=""/><path xmlns="http://www.w3.org/2000/svg" d="m288 184c-6.496094 0-12.972656.652344-19.335938 1.953125-2.859374.511719-5.214843 2.53125-6.15625 5.28125-.941406 2.746094-.320312 5.785156 1.621094 7.945313 1.945313 2.15625 4.90625 3.09375 7.734375 2.445312 37.164063-7.683594 74.613281 11.800781 89.648438 46.644531 15.039062 34.84375 3.527343 75.457031-27.558594 97.226563-2.445313 1.601562-3.820313 4.40625-3.589844 7.316406.226563 2.914062 2.027344 5.46875 4.6875 6.667969 2.664063 1.199219 5.769531.851562 8.101563-.90625 34.277344-24.058594 49.003906-67.5625 36.386718-107.492188-12.613281-39.933593-49.660156-67.082031-91.539062-67.082031zm0 0" fill="#ffffff" data-original="#000000" style=""/><path xmlns="http://www.w3.org/2000/svg" d="m128 296c-30.929688 0-56 25.070312-56 56s25.070312 56 56 56c3.085938 0 6.167969-.253906 9.214844-.753906 4.363281-.71875 7.3125-4.835938 6.59375-9.199219-.722656-4.359375-4.839844-7.3125-9.199219-6.589844-2.183594.359375-4.394531.542969-6.609375.542969-22.089844 0-40-17.910156-40-40s17.910156-40 40-40 40 17.910156 40 40c0 2.164062-.171875 4.324219-.511719 6.464844-.5625 2.863281.480469 5.808594 2.722657 7.679687 2.242187 1.871094 5.324218 2.375 8.042968 1.308594 2.71875-1.0625 4.644532-3.523437 5.019532-6.421875 2.648437-16.214844-1.957032-32.777344-12.597657-45.296875s-26.246093-19.734375-42.675781-19.734375zm0 0" fill="#ffffff" data-original="#000000" style=""/><path xmlns="http://www.w3.org/2000/svg" d="m158.175781 378.257812c-1.1875 1.359376-2.464843 2.640626-3.824219 3.832032-2.289062 1.84375-3.382812 4.796875-2.847656 7.6875.539063 2.894531 2.617188 5.257812 5.417969 6.15625 2.800781.902344 5.867187.191406 7.988281-1.84375 1.902344-1.667969 3.6875-3.460938 5.347656-5.371094 2.800782-3.34375 2.410157-8.320312-.886718-11.179688-3.296875-2.863281-8.277344-2.554687-11.195313.691407zm0 0" fill="#ffffff" data-original="#000000" style=""/></g></svg>
